<?xml version="1.0" encoding="UTF-8" standalone="no"?>
<!DOCTYPE svg PUBLIC "-//W3C//DTD SVG 1.1//EN" "http://www.w3.org/Graphics/SVG/1.1/DTD/svg11.dtd">
<svg width="100%" height="100%" viewBox="0 0 16 16" version="1.1" xmlns="http://www.w3.org/2000/svg" xmlns:xlink="http://www.w3.org/1999/xlink" xml:space="preserve" xmlns:serif="http://www.serif.com/" style="fill-rule:evenodd;clip-rule:evenodd;stroke-linejoin:round;stroke-miterlimit:2;">
    <g transform="matrix(0.877819,0,0,0.875,1.01739,1)">
        <path d="M10.901,15.461C9.395,15.814 7.969,15.948 6.426,15.856C5.696,15.813 4.969,15.709 4.25,15.571C3.492,15.425 2.746,15.224 2.005,15.008C1.498,14.86 1.005,14.666 0.511,14.479C0.395,14.435 -0.077,14.229 0,14C0.404,12.797 1.123,11.712 1.5,10.5C2.102,8.566 1.997,5.732 3.388,3.996C5.541,1.306 10.479,1.086 11.909,4.5C11.912,4.503 11.916,4.506 11.92,4.509L11.909,4.5L13.218,0L15.5,1L12.628,4.83C13.248,5.063 13.922,5.176 14.5,5.5C15.037,5.801 15.51,6.708 15.676,7.258C16.346,9.478 16.084,12.135 14.203,13.734C14.326,13.235 14.292,12.64 14.079,12.168C13.094,9.98 8.87,10.398 9.299,13.136C9.376,13.629 9.466,14.152 9.749,14.563C10.025,14.964 10.446,15.288 10.901,15.461Z" style="fill:rgb(0,128,0);"/>
    </g>
</svg>
